<?xml version="1.0" encoding="windows-1252"?>
<!-- Generator: Adobe Illustrator 19.0.0, SVG Export Plug-In . SVG Version: 6.00 Build 0)  -->
<svg version="1.1" id="Ebene_1" xmlns="http://www.w3.org/2000/svg" xmlns:xlink="http://www.w3.org/1999/xlink" x="0px" y="0px" viewBox="0 0 340 340" style="enable-background:new 0 0 340 340;" xml:space="preserve">
<style type="text/css">
	.st0{fill:#333333;}
	.st1{fill:#C39467;}
	.st2{fill:#98AA13;}
	.st3{fill:#AAC410;}
	.st4{fill:#EDEDED;}
	.st5{fill:#DC0067;}
	.st6{fill:none;stroke:#EDEDED;stroke-width:10;stroke-miterlimit:10;}
</style>
<circle id="XMLID_3_" class="st0" cx="170" cy="170" r="147.5"/>
<g id="XMLID_34_">
	<path id="XMLID_33_" class="st1" d="M141.353,189.186c6.495,11.042,16.558,23.406,21.144,31.497   c4.593,8.096,4.834,12.68,2.753,35.844c-2.081,23.167-3.105,42.466-3.105,42.466l11.57,0.131c0,0,5.209-74.175,6.631-80.386   c1.422-6.21,2.955-12.904,12.492-20.782c9.536-7.875,3.637-10.233,3.637-10.233l-17.326,8.104l-4.751,9.478l-3.98,6.129   c0,0-18.395-23.827-19.069-26.501C150.675,182.264,141.353,189.186,141.353,189.186z"/>
	<path id="XMLID_32_" class="st2" d="M155.986,153.577c-0.807-2.198-1.297-4.551-1.383-7.018   c-0.435-12.492,9.342-22.975,21.835-23.41c5.518-0.192,10.64,1.614,14.681,4.761c3.813-3.42,8.796-5.577,14.314-5.769   c12.494-0.435,22.975,9.343,23.41,21.835c0.086,2.467-0.24,4.848-0.892,7.097c5.981,3.888,10.043,10.522,10.31,18.19   c0.435,12.495-9.342,22.975-21.835,23.409c-0.254,0.009-0.501-0.012-0.754-0.01c-2.709,9.046-10.924,15.785-20.884,16.132   c-9.997,0.348-18.689-5.848-21.993-14.737c-0.794,0.113-1.599,0.189-2.419,0.218c-12.494,0.435-22.975-9.34-23.41-21.835   C146.698,164.772,150.29,157.871,155.986,153.577z"/>
	<path id="XMLID_28_" class="st2" d="M163.635,110.065c-0.698-1.9-1.122-3.934-1.196-6.067   c-0.376-10.799,8.076-19.861,18.876-20.237c4.77-0.166,9.198,1.396,12.691,4.115c3.296-2.956,7.604-4.822,12.374-4.988   c10.801-0.376,19.861,8.077,20.237,18.876c0.074,2.132-0.207,4.191-0.771,6.135c5.171,3.361,8.682,9.096,8.913,15.725   c0.376,10.802-8.076,19.861-18.876,20.237c-0.22,0.008-0.434-0.011-0.652-0.009c-2.342,7.82-9.444,13.646-18.054,13.946   c-8.642,0.301-16.156-5.056-19.013-12.74c-0.686,0.097-1.383,0.163-2.091,0.188c-10.801,0.376-19.861-8.074-20.237-18.876   C155.606,119.742,158.711,113.776,163.635,110.065z"/>
	<path id="XMLID_27_" class="st3" d="M108.095,154.447c-0.697-1.9-1.122-3.934-1.196-6.067   c-0.376-10.799,8.076-19.861,18.876-20.237c4.77-0.166,9.198,1.396,12.691,4.115c3.296-2.956,7.604-4.822,12.374-4.988   c10.801-0.376,19.861,8.077,20.237,18.876c0.074,2.132-0.207,4.191-0.771,6.135c5.171,3.361,8.682,9.096,8.913,15.725   c0.376,10.802-8.076,19.861-18.876,20.237c-0.22,0.008-0.434-0.011-0.652-0.009c-2.342,7.82-9.444,13.646-18.054,13.946   c-8.642,0.301-16.156-5.056-19.013-12.74c-0.686,0.097-1.383,0.163-2.091,0.188c-10.801,0.376-19.861-8.074-20.237-18.876   C100.066,164.125,103.171,158.159,108.095,154.447z"/>
	<path id="XMLID_26_" class="st3" d="M122.647,155.078c-6.826-5.308-9.161-14.236-6.429-21.965   c-0.589-0.365-1.166-0.761-1.726-1.196c-8.531-6.634-10.071-18.927-3.436-27.46c4.072-5.236,10.278-7.826,16.437-7.519   c0.683-1.906,1.661-3.739,2.97-5.423c6.633-8.53,18.928-10.07,27.46-3.436c3.768,2.93,6.166,6.966,7.104,11.293"/>
	<path id="XMLID_24_" class="st2" d="M212.022,124.767c0.681-2.916,0.936-5.979,0.66-9.124   c-1.398-15.924-15.443-27.704-31.37-26.306c-7.034,0.618-13.253,3.71-17.891,8.334c-5.373-3.745-12.036-5.707-19.07-5.089   c-15.926,1.398-27.704,15.446-26.306,31.37c0.276,3.145,1.061,6.116,2.24,8.869c-6.985,5.868-11.106,14.923-10.248,24.699   c1.398,15.928,15.443,27.704,31.37,26.306c0.324-0.028,0.635-0.094,0.956-0.131c4.85,11.059,16.33,18.332,29.027,17.217   c12.744-1.119,22.81-10.341,25.617-22.139c1.026,0.019,2.06-0.01,3.104-0.101c15.926-1.398,27.705-15.441,26.306-31.37   C225.558,137.526,219.922,129.328,212.022,124.767z"/>
	<path id="XMLID_23_" class="st3" d="M212.022,124.767c0.681-2.916,0.936-5.979,0.66-9.124   c-1.398-15.924-16.004-27.655-31.931-26.257c-6.527,0.573-11.682,3.236-17.406,7.425l9.123,103.916   c13.019-2.042,21.334-10.795,23.976-21.905c1.026,0.019,2.34-0.034,3.385-0.126c15.926-1.398,27.845-15.453,26.446-31.382   C225.418,137.539,219.922,129.328,212.022,124.767z"/>
	<g id="XMLID_41_">
		<path id="XMLID_22_" class="st4" d="M52.66,174.168c-1.316-18.282,5.523-36.988,18.405-50.035c1.76-1.709,4.839-1.487,6.452,0.316    c1.953,1.658,1.987,4.974,0.085,6.683c-10.746,11.164-16.557,26.921-15.4,42.397c0.828,12.854,6.364,25.308,15.233,34.635    c0.848,0.829,1.543,1.89,1.604,3.109c0.358,3.056-2.836,5.882-5.824,5.222c-1.074-0.185-1.967-0.874-2.682-1.663    C60.076,203.912,53.655,189.25,52.66,174.168"/>
		<path id="XMLID_21_" class="st4" d="M68.535,174.627c-1.524-14.006,3.639-28.549,13.647-38.46    c1.769-1.549,4.662-1.356,6.252,0.364c1.921,1.569,2.135,4.731,0.394,6.51c-6.256,6.347-10.227,14.926-10.879,23.823    c-0.896,10.802,3.203,21.84,10.815,29.532c1.875,1.774,1.661,5.079-0.333,6.676c-1.624,1.72-4.596,1.863-6.316,0.21    C74.488,195.659,69.635,185.35,68.535,174.627"/>
		<path id="XMLID_16_" class="st4" d="M84.17,172.545c-0.878-8.838,2.507-17.977,8.908-24.126c1.752-1.686,4.769-1.49,6.392,0.284    c1.944,1.609,2.076,4.839,0.252,6.59c-3.559,3.467-5.808,8.269-6.078,13.24c-0.403,5.643,1.826,11.353,5.792,15.36    c1.107,0.985,1.786,2.449,1.612,3.946c-0.245,3.48-4.889,5.895-7.674,3.498C88.125,186.499,84.874,179.625,84.17,172.545"/>
	</g>
	<g id="XMLID_40_">
		<path id="XMLID_15_" class="st4" d="M287.34,174.168c1.316-18.282-5.523-36.988-18.405-50.035    c-1.76-1.709-4.839-1.487-6.452,0.316c-1.953,1.658-1.987,4.974-0.085,6.683c10.746,11.164,16.557,26.921,15.4,42.397    c-0.828,12.854-6.364,25.308-15.233,34.635c-0.848,0.829-1.543,1.89-1.604,3.109c-0.358,3.056,2.836,5.882,5.824,5.222    c1.074-0.185,1.967-0.874,2.682-1.663C279.923,203.912,286.345,189.25,287.34,174.168"/>
		<path id="XMLID_14_" class="st4" d="M271.465,174.627c1.524-14.006-3.639-28.549-13.647-38.46    c-1.769-1.549-4.662-1.356-6.252,0.364c-1.921,1.569-2.135,4.731-0.394,6.51c6.256,6.347,10.227,14.926,10.879,23.823    c0.896,10.802-3.203,21.84-10.815,29.532c-1.875,1.774-1.661,5.079,0.333,6.676c1.624,1.72,4.596,1.863,6.316,0.21    C265.512,195.659,270.365,185.35,271.465,174.627"/>
		<path id="XMLID_10_" class="st4" d="M255.83,172.545c0.878-8.838-2.507-17.977-8.908-24.126c-1.752-1.686-4.769-1.49-6.392,0.284    c-1.944,1.609-2.076,4.839-0.252,6.59c3.559,3.467,5.808,8.269,6.078,13.24c0.403,5.643-1.826,11.353-5.792,15.36    c-1.107,0.985-1.786,2.449-1.612,3.946c0.245,3.48,4.889,5.895,7.674,3.498C251.875,186.499,255.126,179.625,255.83,172.545"/>
	</g>
</g>
<g id="XMLID_1_">
	<path id="XMLID_110_" class="st5" d="M170,23c39.265,0,76.18,15.291,103.945,43.055C301.709,93.82,317,130.735,317,170   s-15.291,76.18-43.055,103.945C246.18,301.709,209.265,317,170,317s-76.18-15.291-103.945-43.055C38.291,246.18,23,209.265,23,170   S38.291,93.82,66.055,66.055S130.735,23,170,23 M170,3C77.768,3,3,77.768,3,170s74.768,167,167,167s167-74.768,167-167   S262.232,3,170,3L170,3z"/>
</g>
<circle id="XMLID_2_" class="st6" cx="170" cy="170" r="132.262"/>
</svg>